<svg id="visual" viewBox="0 0 900 450" width="900" height="450" xmlns="http://www.w3.org/2000/svg" xmlns:xlink="http://www.w3.org/1999/xlink" version="1.1"><g stroke-width="1" stroke-linejoin="bevel"><path d="M435 202L376 109L403 219Z" fill="#246688" stroke="#246688"></path><path d="M376 109L342 139L403 219Z" fill="#246688" stroke="#246688"></path><path d="M342 139L328 180L403 219Z" fill="#297ea6" stroke="#297ea6"></path><path d="M435 202L443 98L376 109Z" fill="#0c2435" stroke="#0c2435"></path><path d="M350 0L336 91L376 109Z" fill="#246688" stroke="#246688"></path><path d="M376 109L336 91L342 139Z" fill="#15384f" stroke="#15384f"></path><path d="M342 139L305 193L328 180Z" fill="#297ea6" stroke="#297ea6"></path><path d="M242 187L305 193L342 139Z" fill="#205a7a" stroke="#205a7a"></path><path d="M328 180L314 265L403 219Z" fill="#0c2435" stroke="#0c2435"></path><path d="M435 202L489 130L443 98Z" fill="#112e42" stroke="#112e42"></path><path d="M305 193L314 265L328 180Z" fill="#081a28" stroke="#081a28"></path><path d="M489 130L485 62L443 98Z" fill="#277297" stroke="#277297"></path><path d="M443 98L350 0L376 109Z" fill="#297ea6" stroke="#297ea6"></path><path d="M527 279L540 194L435 202Z" fill="#205a7a" stroke="#205a7a"></path><path d="M435 202L540 194L489 130Z" fill="#081a28" stroke="#081a28"></path><path d="M489 130L563 118L485 62Z" fill="#19435d" stroke="#19435d"></path><path d="M527 279L435 202L455 339Z" fill="#0c2435" stroke="#0c2435"></path><path d="M214 109L242 187L342 139Z" fill="#19435d" stroke="#19435d"></path><path d="M305 193L242 187L314 265Z" fill="#0c2435" stroke="#0c2435"></path><path d="M239 352L350 321L314 265Z" fill="#1d4e6b" stroke="#1d4e6b"></path><path d="M314 265L350 321L403 219Z" fill="#1d4e6b" stroke="#1d4e6b"></path><path d="M470 0L350 0L443 98Z" fill="#15384f" stroke="#15384f"></path><path d="M336 91L214 109L342 139Z" fill="#205a7a" stroke="#205a7a"></path><path d="M540 194L563 118L489 130Z" fill="#205a7a" stroke="#205a7a"></path><path d="M455 339L435 202L403 219Z" fill="#19435d" stroke="#19435d"></path><path d="M540 194L599 127L563 118Z" fill="#19435d" stroke="#19435d"></path><path d="M500 0L470 0L485 62Z" fill="#112e42" stroke="#112e42"></path><path d="M485 62L470 0L443 98Z" fill="#246688" stroke="#246688"></path><path d="M350 321L394 347L403 219Z" fill="#00101c" stroke="#00101c"></path><path d="M394 347L455 339L403 219Z" fill="#205a7a" stroke="#205a7a"></path><path d="M261 0L214 109L336 91Z" fill="#112e42" stroke="#112e42"></path><path d="M214 109L202 131L242 187Z" fill="#00101c" stroke="#00101c"></path><path d="M608 0L500 0L485 62Z" fill="#205a7a" stroke="#205a7a"></path><path d="M638 232L599 127L540 194Z" fill="#246688" stroke="#246688"></path><path d="M563 118L608 0L485 62Z" fill="#00101c" stroke="#00101c"></path><path d="M350 0L261 0L336 91Z" fill="#0c2435" stroke="#0c2435"></path><path d="M114 102L168 155L202 131Z" fill="#00101c" stroke="#00101c"></path><path d="M676 162L612 114L599 127Z" fill="#277297" stroke="#277297"></path><path d="M599 127L612 114L563 118Z" fill="#19435d" stroke="#19435d"></path><path d="M261 0L240 0L214 109Z" fill="#205a7a" stroke="#205a7a"></path><path d="M114 102L202 131L214 109Z" fill="#205a7a" stroke="#205a7a"></path><path d="M202 131L168 155L242 187Z" fill="#205a7a" stroke="#205a7a"></path><path d="M211 335L239 352L314 265Z" fill="#112e42" stroke="#112e42"></path><path d="M455 339L482 378L527 279Z" fill="#00101c" stroke="#00101c"></path><path d="M527 279L610 258L540 194Z" fill="#205a7a" stroke="#205a7a"></path><path d="M394 347L482 378L455 339Z" fill="#1d4e6b" stroke="#1d4e6b"></path><path d="M168 155L164 199L242 187Z" fill="#19435d" stroke="#19435d"></path><path d="M563 345L590 294L527 279Z" fill="#1d4e6b" stroke="#1d4e6b"></path><path d="M590 294L610 258L527 279Z" fill="#277297" stroke="#277297"></path><path d="M211 335L314 265L242 187Z" fill="#205a7a" stroke="#205a7a"></path><path d="M350 321L343 450L394 347Z" fill="#205a7a" stroke="#205a7a"></path><path d="M394 347L470 450L482 378Z" fill="#205a7a" stroke="#205a7a"></path><path d="M482 378L563 345L527 279Z" fill="#15384f" stroke="#15384f"></path><path d="M693 308L638 232L610 258Z" fill="#277297" stroke="#277297"></path><path d="M164 199L211 335L242 187Z" fill="#205a7a" stroke="#205a7a"></path><path d="M261 450L262 379L188 404Z" fill="#277297" stroke="#277297"></path><path d="M239 352L262 379L350 321Z" fill="#205a7a" stroke="#205a7a"></path><path d="M676 162L638 96L612 114Z" fill="#15384f" stroke="#15384f"></path><path d="M612 114L608 0L563 118Z" fill="#15384f" stroke="#15384f"></path><path d="M693 308L610 258L590 294Z" fill="#1d4e6b" stroke="#1d4e6b"></path><path d="M610 258L638 232L540 194Z" fill="#112e42" stroke="#112e42"></path><path d="M638 96L608 0L612 114Z" fill="#1d4e6b" stroke="#1d4e6b"></path><path d="M482 378L534 395L563 345Z" fill="#277297" stroke="#277297"></path><path d="M667 405L693 308L590 294Z" fill="#15384f" stroke="#15384f"></path><path d="M493 450L534 395L482 378Z" fill="#19435d" stroke="#19435d"></path><path d="M188 404L262 379L239 352Z" fill="#0c2435" stroke="#0c2435"></path><path d="M164 199L169 329L211 335Z" fill="#246688" stroke="#246688"></path><path d="M638 232L676 162L599 127Z" fill="#081a28" stroke="#081a28"></path><path d="M638 96L660 0L608 0Z" fill="#277297" stroke="#277297"></path><path d="M151 0L114 102L214 109Z" fill="#15384f" stroke="#15384f"></path><path d="M168 155L106 170L164 199Z" fill="#00101c" stroke="#00101c"></path><path d="M164 199L103 240L169 329Z" fill="#297ea6" stroke="#297ea6"></path><path d="M114 102L106 170L168 155Z" fill="#205a7a" stroke="#205a7a"></path><path d="M300 450L343 450L262 379Z" fill="#112e42" stroke="#112e42"></path><path d="M262 379L343 450L350 321Z" fill="#0c2435" stroke="#0c2435"></path><path d="M240 0L151 0L214 109Z" fill="#00101c" stroke="#00101c"></path><path d="M343 450L470 450L394 347Z" fill="#1d4e6b" stroke="#1d4e6b"></path><path d="M106 170L103 240L164 199Z" fill="#205a7a" stroke="#205a7a"></path><path d="M261 450L300 450L262 379Z" fill="#205a7a" stroke="#205a7a"></path><path d="M470 450L493 450L482 378Z" fill="#1d4e6b" stroke="#1d4e6b"></path><path d="M738 103L660 0L638 96Z" fill="#19435d" stroke="#19435d"></path><path d="M188 404L239 352L211 335Z" fill="#277297" stroke="#277297"></path><path d="M88 338L188 404L169 329Z" fill="#15384f" stroke="#15384f"></path><path d="M169 329L188 404L211 335Z" fill="#19435d" stroke="#19435d"></path><path d="M0 254L83 266L103 240Z" fill="#277297" stroke="#277297"></path><path d="M103 240L83 266L169 329Z" fill="#19435d" stroke="#19435d"></path><path d="M0 254L103 240L106 170Z" fill="#277297" stroke="#277297"></path><path d="M667 405L590 294L563 345Z" fill="#205a7a" stroke="#205a7a"></path><path d="M638 232L738 208L676 162Z" fill="#0c2435" stroke="#0c2435"></path><path d="M676 162L738 103L638 96Z" fill="#205a7a" stroke="#205a7a"></path><path d="M583 450L563 345L534 395Z" fill="#0c2435" stroke="#0c2435"></path><path d="M493 450L583 450L534 395Z" fill="#1d4e6b" stroke="#1d4e6b"></path><path d="M693 308L738 208L638 232Z" fill="#277297" stroke="#277297"></path><path d="M745 189L738 103L676 162Z" fill="#0c2435" stroke="#0c2435"></path><path d="M738 208L745 189L676 162Z" fill="#15384f" stroke="#15384f"></path><path d="M83 266L88 338L169 329Z" fill="#205a7a" stroke="#205a7a"></path><path d="M48 0L39 89L114 102Z" fill="#00101c" stroke="#00101c"></path><path d="M114 102L39 89L106 170Z" fill="#297ea6" stroke="#297ea6"></path><path d="M83 266L0 314L88 338Z" fill="#15384f" stroke="#15384f"></path><path d="M583 450L667 405L563 345Z" fill="#15384f" stroke="#15384f"></path><path d="M693 308L762 312L738 208Z" fill="#277297" stroke="#277297"></path><path d="M738 208L803 234L745 189Z" fill="#00101c" stroke="#00101c"></path><path d="M583 450L637 450L667 405Z" fill="#00101c" stroke="#00101c"></path><path d="M151 0L48 0L114 102Z" fill="#1d4e6b" stroke="#1d4e6b"></path><path d="M88 338L125 450L188 404Z" fill="#277297" stroke="#277297"></path><path d="M188 404L125 450L261 450Z" fill="#15384f" stroke="#15384f"></path><path d="M0 59L0 128L39 89Z" fill="#246688" stroke="#246688"></path><path d="M39 89L0 128L106 170Z" fill="#0c2435" stroke="#0c2435"></path><path d="M88 338L110 450L125 450Z" fill="#00101c" stroke="#00101c"></path><path d="M849 91L755 0L738 103Z" fill="#246688" stroke="#246688"></path><path d="M738 103L755 0L660 0Z" fill="#277297" stroke="#277297"></path><path d="M754 381L762 312L693 308Z" fill="#0c2435" stroke="#0c2435"></path><path d="M745 189L813 126L738 103Z" fill="#0c2435" stroke="#0c2435"></path><path d="M790 299L762 312L754 381Z" fill="#205a7a" stroke="#205a7a"></path><path d="M0 376L110 450L88 338Z" fill="#1d4e6b" stroke="#1d4e6b"></path><path d="M0 128L0 254L106 170Z" fill="#081a28" stroke="#081a28"></path><path d="M48 0L0 59L39 89Z" fill="#277297" stroke="#277297"></path><path d="M790 299L803 234L738 208Z" fill="#19435d" stroke="#19435d"></path><path d="M754 381L693 308L667 405Z" fill="#297ea6" stroke="#297ea6"></path><path d="M762 312L790 299L738 208Z" fill="#081a28" stroke="#081a28"></path><path d="M803 234L813 126L745 189Z" fill="#205a7a" stroke="#205a7a"></path><path d="M747 450L754 381L667 405Z" fill="#246688" stroke="#246688"></path><path d="M0 254L0 314L83 266Z" fill="#0c2435" stroke="#0c2435"></path><path d="M48 0L0 0L0 59Z" fill="#205a7a" stroke="#205a7a"></path><path d="M0 314L0 376L88 338Z" fill="#277297" stroke="#277297"></path><path d="M637 450L747 450L667 405Z" fill="#1d4e6b" stroke="#1d4e6b"></path><path d="M754 381L830 404L790 299Z" fill="#0c2435" stroke="#0c2435"></path><path d="M900 128L849 91L813 126Z" fill="#1d4e6b" stroke="#1d4e6b"></path><path d="M813 126L849 91L738 103Z" fill="#15384f" stroke="#15384f"></path><path d="M900 191L813 126L803 234Z" fill="#246688" stroke="#246688"></path><path d="M849 91L846 0L755 0Z" fill="#081a28" stroke="#081a28"></path><path d="M0 376L0 450L110 450Z" fill="#15384f" stroke="#15384f"></path><path d="M747 450L830 404L754 381Z" fill="#0c2435" stroke="#0c2435"></path><path d="M900 314L900 191L803 234Z" fill="#112e42" stroke="#112e42"></path><path d="M900 314L803 234L790 299Z" fill="#081a28" stroke="#081a28"></path><path d="M849 91L900 0L846 0Z" fill="#081a28" stroke="#081a28"></path><path d="M900 191L900 128L813 126Z" fill="#277297" stroke="#277297"></path><path d="M900 128L900 99L849 91Z" fill="#0c2435" stroke="#0c2435"></path><path d="M900 341L900 314L790 299Z" fill="#081a28" stroke="#081a28"></path><path d="M747 450L830 450L830 404Z" fill="#246688" stroke="#246688"></path><path d="M900 341L790 299L830 404Z" fill="#112e42" stroke="#112e42"></path><path d="M900 99L900 0L849 91Z" fill="#277297" stroke="#277297"></path><path d="M900 450L900 341L830 404Z" fill="#0c2435" stroke="#0c2435"></path><path d="M830 450L900 450L830 404Z" fill="#112e42" stroke="#112e42"></path></g></svg>